# xmcd
# 
# Track frame offsets:
#     150
#     20245
#     36354
#     53488
#     66191
#     86185
#     103960
#     120319
#     137068
#     154387
# 
# Disc length: 2244
# 
# Revision: 0
# Processed by: cddbd v1.5.2PL0 Copyright (c) Steve Scherf et al.
# Submitted via: fre:ac v1.0.31
# 
DISCID=8d08c20a
DTITLE=LeAnn Rimes - The Biggest Hits Of LeAnn Rimes
DYEAR=2018
DGENRE=Country
TTITLE0=How Do I Live - LeAnn Rimes
TTITLE1=Can't Fight The Moonlight - LeAnn Rimes
TTITLE2=I Need You - LeAnn Rimes
TTITLE3=Blue - LeAnn Rimes
TTITLE4=Nothin' Better To Do - LeAnn Rimes
TTITLE5=Something's Gotta Give - LeAnn Rimes
TTITLE6=Probably Wouldn't Be This Way - LeAnn Rimes
TTITLE7=One Way Ticket (Because I Can) - LeAnn Rimes
TTITLE8=Unchained Melody - LeAnn Rimes
TTITLE9=Big Deal - LeAnn Rimes
EXTD=
EXTT0=
EXTT1=
EXTT2=
EXTT3=
EXTT4=
EXTT5=
EXTT6=
EXTT7=
EXTT8=
EXTT9=
PLAYORDER=
